# xmcd
#
# Track frame offsets:
#	150
#	14017
#	32151
#	52399
#	73138
#	95448
#	115378
#	130638
#	150066
#	165763
#	187751
#	208464
#	231166
#	245396
#	263488
#
# Disc length: 3753 seconds
# Revision: 0
# Processed by: cddbd v1.5.2PL0 Copyright (c) Steve Scherf et al.
# Submitted via: dBpowerAMP V12.0
#
DISCID=c50ea70f
DTITLE=Terry Rivel - Broken People
DYEAR=2011
DGENRE=Country
TTITLE0=I'm Back Again
TTITLE1=Angel in Darkness
TTITLE2=Cup of Tea in the Morning
TTITLE3=Broken People
TTITLE4=Seems Like an Angel
TTITLE5=That Old Clock on the Wall
TTITLE6=Closet Full of Tear Stained Shirts
TTITLE7=Set Out on the Road
TTITLE8=Looking for June
TTITLE9=She's a Legend
TTITLE10=Ode to Potter County
TTITLE11=Annie
TTITLE12=High School Hippies
TTITLE13=She's My Baby
TTITLE14=The Fiddle and the Mandolin
EXTD=
EXTT0=
EXTT1=
EXTT2=
EXTT3=
EXTT4=
EXTT5=
EXTT6=
EXTT7=
EXTT8=
EXTT9=
EXTT10=
EXTT11=
EXTT12=
EXTT13=
EXTT14=
PLAYORDER=
